
  <svg xmlns="http://www.w3.org/2000/svg" viewBox="0 0 16 16">
  <path
    fill="#c5a257"
    d="M14.34,8.83,16,8l-1.66-.83,1.38-1.24-1.82-.38,1-1.55-1.74.1h0c.66-.57,1.15-1,2.65-2.18l-2.7-.84c-.48.44-.87.8-1.21,1.14L12,1.07l-1.55,1L10.07.27,8.84,1.65,8,0,7.16,1.65,5.93.27,5.55,2.09,4,1.07l.1,1.85L2.34,2.34,2.92,4.1,1.07,4l1,1.55L.27,5.93,1.66,7.17,0,8l1.66.83L.27,10.07l1.82.38L1.07,12l1.85-.1-.58,1.76,1.76-.58L4,14.93l1.55-1,.38,1.81,1.23-1.38L8,16l.84-1.65,1.23,1.38.38-1.81,1.55,1-.1-1.85,1.76.58-.58-1.76,1.85.1-1-1.55,1.82-.38ZM8,13.14a5.14,5.14,0,1,1,2.67-9.52l-.48.61a27.9,27.9,0,0,0-2.56,4L6.14,6l-1.36.82,3.08,4.52C9,9.42,9.5,8.56,10.07,7.7A18.66,18.66,0,0,1,12.2,5,5.13,5.13,0,0,1,8,13.14Z" />
  </svg>
